<?xml version="1.0" standalone="no"?>
<!DOCTYPE svg PUBLIC "-//W3C//DTD SVG 20010904//EN"
 "http://www.w3.org/TR/2001/REC-SVG-20010904/DTD/svg10.dtd">
<svg version="1.0" xmlns="http://www.w3.org/2000/svg"
 width="984.000000pt" height="984.000000pt" viewBox="0 0 984.000000 984.000000"
 preserveAspectRatio="xMidYMid meet">
<metadata>
Created by potrace 1.11, written by Peter Selinger 2001-2013
</metadata>
<g transform="translate(0.000000,984.000000) scale(0.100000,-0.100000)"
fill="#000000" stroke="none">
<path d="M0 4920 l0 -4920 4920 0 4920 0 0 4920 0 4920 -4920 0 -4920 0 0
-4920z m7583 4828 c-13 -15 -23 -44 -27 -82 -6 -55 -10 -63 -54 -103 -25 -24
-50 -43 -54 -43 -5 0 -8 -6 -8 -14 0 -15 -41 -59 -51 -54 -10 5 -49 -33 -49
-47 0 -7 -9 -15 -20 -18 -12 -3 -20 -14 -20 -26 0 -19 -10 -26 -32 -22 -5 0
-8 -10 -8 -23 0 -15 -7 -27 -19 -31 -22 -7 -131 -112 -131 -126 0 -5 -4 -9
-10 -9 -5 0 -10 -7 -10 -15 0 -8 -6 -12 -14 -9 -8 3 -17 1 -21 -5 -3 -6 -1
-11 6 -11 7 0 -10 -16 -39 -36 -29 -20 -52 -43 -52 -50 0 -8 -3 -13 -7 -12 -5
2 -18 -7 -30 -19 -13 -13 -20 -23 -17 -23 3 0 -15 -17 -40 -37 -24 -21 -45
-43 -45 -49 -1 -6 -11 -16 -24 -23 -12 -7 -28 -25 -36 -42 -12 -28 -15 -29
-80 -29 -42 0 -74 -5 -87 -15 -12 -8 -24 -11 -28 -8 -3 3 -6 231 -6 505 l0
498 517 0 516 0 -20 -22z m1078 -5 c-10 -16 -22 -52 -25 -82 -5 -49 -10 -59
-52 -98 -26 -24 -51 -43 -56 -43 -5 0 -7 -4 -3 -9 6 -11 -53 -76 -61 -68 -7 7
-44 -30 -44 -43 0 -5 -7 -10 -15 -10 -8 0 -17 -11 -21 -25 -4 -15 -13 -25 -25
-25 -12 0 -16 -5 -13 -14 3 -8 -2 -20 -12 -27 -10 -8 -42 -38 -71 -66 -29 -29
-57 -53 -62 -53 -5 0 -11 -9 -14 -21 -3 -11 -15 -23 -27 -26 -11 -3 -19 -10
-17 -16 2 -6 -19 -30 -47 -54 -28 -23 -77 -69 -110 -102 -32 -34 -62 -61 -67
-61 -5 0 -9 -4 -9 -9 0 -4 -16 -25 -35 -45 -19 -21 -35 -42 -35 -47 0 -5 -30
-9 -67 -9 -55 0 -71 -4 -90 -22 l-23 -21 0 511 0 512 510 0 511 0 -20 -27z
m-3221 -3738 l0 -515 -515 0 -515 0 0 515 0 515 515 0 515 0 0 -515z m1080 0
l0 -515 -515 0 -515 0 0 515 0 515 515 0 515 0 0 -515z m-4348 -1667 c-13 -15
-25 -46 -31 -85 -6 -39 -17 -69 -30 -82 -12 -12 -23 -21 -26 -21 -11 0 -59
-56 -57 -67 2 -7 -4 -13 -13 -13 -8 0 -15 -6 -15 -14 0 -8 -10 -18 -22 -22
-34 -10 -57 -34 -51 -52 5 -12 2 -14 -11 -9 -13 5 -20 0 -29 -23 -6 -16 -17
-30 -24 -30 -7 0 -13 -4 -13 -10 0 -5 -8 -18 -19 -27 -10 -10 -43 -41 -73 -70
-30 -28 -58 -58 -61 -67 -4 -9 -18 -21 -32 -28 -15 -7 -24 -17 -21 -25 3 -7 0
-13 -7 -13 -15 -1 -77 -56 -77 -69 0 -5 -11 -12 -25 -15 -14 -4 -25 -13 -25
-22 0 -8 -7 -17 -15 -20 -8 -4 -15 -11 -15 -18 0 -6 -16 -22 -35 -35 -19 -13
-35 -29 -35 -37 0 -7 -8 -15 -17 -18 -10 -3 -26 -19 -35 -36 -16 -27 -22 -30
-70 -30 -33 0 -68 -7 -91 -19 l-37 -19 0 509 0 509 517 0 516 0 -21 -22z
m6518 -1578 l0 -520 -520 0 -520 0 0 520 0 520 520 0 520 0 0 -520z m-1080
-1080 l0 -520 -520 0 -520 0 0 520 0 520 520 0 520 0 0 -520z m1080 0 l0 -520
-520 0 -520 0 0 520 0 520 520 0 520 0 0 -520z m-3260 503 c0 -3 -8 -15 -17
-25 -9 -10 -20 -43 -24 -74 -7 -50 -13 -61 -58 -104 -28 -27 -51 -52 -51 -57
-1 -13 -59 -67 -66 -60 -9 8 -46 -32 -39 -43 4 -6 -3 -10 -14 -10 -14 0 -23
-9 -27 -25 -3 -14 -12 -25 -19 -25 -7 0 -15 -10 -19 -23 -3 -13 -16 -29 -30
-35 -13 -6 -41 -31 -62 -56 -21 -25 -44 -46 -51 -46 -7 0 -13 -7 -13 -15 0 -8
-11 -22 -25 -31 -14 -9 -22 -20 -19 -25 3 -5 1 -9 -5 -9 -5 0 -56 -45 -111
-100 -56 -55 -106 -100 -111 -100 -5 0 -9 -6 -9 -14 0 -7 -11 -21 -25 -30 -14
-9 -25 -21 -25 -27 0 -25 -30 -39 -88 -39 -45 0 -66 -5 -86 -21 l-26 -20 0
510 0 511 510 0 c281 0 510 -3 510 -7z m1073 -15 c-12 -14 -25 -49 -32 -87 -6
-40 -17 -68 -28 -76 -29 -21 -83 -75 -83 -83 0 -5 -13 -21 -30 -37 -16 -16
-30 -25 -30 -20 0 4 -9 0 -20 -10 -11 -10 -20 -24 -20 -32 0 -7 -7 -13 -15
-13 -8 0 -22 -14 -30 -30 -9 -17 -20 -28 -25 -25 -6 4 -10 -3 -10 -14 0 -11
-14 -30 -32 -43 -36 -25 -118 -107 -118 -117 0 -4 -14 -15 -30 -25 -17 -9 -28
-21 -25 -26 3 -4 -6 -15 -19 -23 -38 -25 -126 -114 -119 -121 4 -3 1 -6 -5 -6
-13 0 -82 -64 -82 -77 0 -5 -10 -15 -23 -22 -12 -6 -30 -25 -39 -41 -16 -28
-21 -30 -81 -30 -50 0 -70 -5 -91 -21 l-26 -20 0 510 0 511 517 0 516 0 -20
-22z m-4303 -1578 l0 -520 -520 0 -520 0 0 520 0 520 520 0 520 0 0 -520z
m1080 0 l0 -520 -520 0 -520 0 0 520 0 520 520 0 520 0 0 -520z m5410 0 l0
-520 -520 0 -520 0 0 520 0 520 520 0 520 0 0 -520z"/>
</g>
</svg>
